<svg width="68" height="27" viewBox="0 0 68 27" fill="none" xmlns="http://www.w3.org/2000/svg">
<path d="M7.072 6.272V10.412H15.172V15.776H7.072V20.348H16.252V26H0.0160001V0.619998H16.252V6.272H7.072ZM26.4347 20.132H35.0387V26H18.6587V20.42L26.6867 11.672H18.7307V5.804H34.7507V11.384L26.4347 20.132ZM57.2808 15.668C57.2808 16.22 57.2448 16.772 57.1728 17.324H43.8168C43.8888 18.428 44.1888 19.256 44.7168 19.808C45.2688 20.336 45.9648 20.6 46.8048 20.6C47.9808 20.6 48.8208 20.072 49.3248 19.016H56.8488C56.5368 20.408 55.9248 21.656 55.0128 22.76C54.1248 23.84 52.9968 24.692 51.6288 25.316C50.2608 25.94 48.7488 26.252 47.0928 26.252C45.1008 26.252 43.3248 25.832 41.7648 24.992C40.2288 24.152 39.0168 22.952 38.1288 21.392C37.2648 19.832 36.8328 17.996 36.8328 15.884C36.8328 13.772 37.2648 11.948 38.1288 10.412C38.9928 8.852 40.1928 7.652 41.7288 6.812C43.2888 5.972 45.0768 5.552 47.0928 5.552C49.0848 5.552 50.8488 5.96 52.3848 6.776C53.9208 7.592 55.1208 8.768 55.9848 10.304C56.8488 11.816 57.2808 13.604 57.2808 15.668ZM50.0808 13.904C50.0808 13.04 49.7928 12.368 49.2168 11.888C48.6408 11.384 47.9208 11.132 47.0568 11.132C46.1928 11.132 45.4848 11.372 44.9328 11.852C44.3808 12.308 44.0208 12.992 43.8528 13.904H50.0808ZM63.5883 26.288C62.3403 26.288 61.3323 25.952 60.5643 25.28C59.8203 24.584 59.4483 23.708 59.4483 22.652C59.4483 21.596 59.8203 20.72 60.5643 20.024C61.3323 19.328 62.3403 18.98 63.5883 18.98C64.8123 18.98 65.7963 19.328 66.5403 20.024C67.3083 20.72 67.6923 21.596 67.6923 22.652C67.6923 23.684 67.3083 24.548 66.5403 25.244C65.7963 25.94 64.8123 26.288 63.5883 26.288Z" fill="white"/>
</svg>
