<svg width="89" height="70" viewBox="0 0 89 70" fill="none" xmlns="http://www.w3.org/2000/svg">
<path d="M54.12 34.56L50.75 39.12C50.75 39.1213 50.7497 39.1226 50.7492 39.1238C50.7487 39.125 50.748 39.1261 50.7471 39.1271C50.7461 39.128 50.745 39.1287 50.7438 39.1292C50.7426 39.1297 50.7413 39.13 50.74 39.13L39.83 53.891L25.54 34.56L0 0H28.57L47.6 25.75C47.61 25.76 47.62 25.76 47.62 25.77L54.12 34.56Z" fill="url(#paint0_linear)"/>
<path d="M39.83 53.891L39.39 54.491L38.49 55.701C38.48 55.711 38.48 55.721 38.47 55.731L32.99 63.151L28.57 69.131H0L2.38 65.911C2.38073 65.9034 2.38429 65.8962 2.39 65.891H2.4L20.52 41.35H20.53V41.34L20.54 41.33L21.15 40.5L24.92 35.391L25.54 34.561L39.83 53.891Z" fill="url(#paint1_linear)"/>
<g style="mix-blend-mode:multiply" opacity="0.15">
<g style="mix-blend-mode:multiply" opacity="0.15">
<path d="M39.8304 53.891L39.3904 54.491L38.4904 55.701C38.4804 55.711 38.4804 55.721 38.4704 55.731L32.9904 63.151L32.6404 62.481L21.1504 40.5L24.9204 35.391L25.5404 34.561L39.8304 53.891Z" fill="black"/>
</g>
</g>
<g style="mix-blend-mode:multiply" opacity="0.25">
<g style="mix-blend-mode:multiply" opacity="0.25">
<path d="M50.74 39.13L39.83 53.891L39.39 54.491L39.25 54.311C37.55 52.101 35.83 49.911 34.15 47.671C32.46 45.451 30.75 43.241 29.09 40.991L24.92 35.391L25.54 34.561L0 0C1.8 2.14 3.54 4.33 5.29 6.5C7.06 8.67 8.77 10.88 10.5 13.07C13.93 17.48 17.3267 21.9133 20.69 26.37L25.69 33.09L30.65 39.84C32.31 42.09 33.92 44.37 35.56 46.63C37.01 48.64 38.43 50.67 39.86 52.69L42.09 49.85C43.03 48.65 43.98 47.44 44.95 46.25C46.88 43.87 48.76 41.48 50.74 39.13Z" fill="black"/>
</g>
</g>
<g style="mix-blend-mode:multiply" opacity="0.25">
<g style="mix-blend-mode:multiply" opacity="0.25">
<path d="M38.47 55.73L32.99 63.15L28.57 69.13H0C2.38 68.86 4.76 68.69 7.14 68.55C8.33 68.48 9.52 68.42 10.71 68.38C11.9 68.34 13.09 68.27 14.28 68.25C16.67 68.18 19.05 68.15 21.43 68.14C22.62 68.12 23.81 68.14 25 68.15C26.04 68.16 27.08 68.16 28.12 68.18L30.38 65.28C31.14 64.35 31.88 63.41 32.64 62.48C32.76 62.33 32.89 62.18 33.01 62.03C34.77 59.891 36.57 57.78 38.47 55.73Z" fill="black"/>
</g>
</g>
<g style="mix-blend-mode:screen" opacity="0.4">
<g style="mix-blend-mode:screen" opacity="0.4">
<path d="M2.38988 65.8911H2.39988L2.37988 65.9111C2.38061 65.9034 2.38418 65.8963 2.38988 65.8911Z" fill="white"/>
</g>
</g>
<g style="mix-blend-mode:screen" opacity="0.4">
<g style="mix-blend-mode:screen" opacity="0.4">
<path d="M20.5304 41.3499C20.4304 41.5499 19.5804 43.2199 18.1604 45.5099C17.4104 46.7399 16.5104 48.1499 15.5004 49.6299C14.9904 50.3699 14.4904 51.1399 13.9304 51.8999C13.3704 52.6599 12.8204 53.4399 12.2604 54.2099C11.6804 54.9799 11.1104 55.7399 10.5404 56.4899C9.97039 57.2399 9.38039 57.9499 8.83039 58.6499C7.71039 60.0499 6.63039 61.3299 5.68039 62.4099C3.90039 64.4299 2.56039 65.7399 2.40039 65.8899L20.5204 41.3499C20.5304 41.3399 20.5304 41.3499 20.5304 41.3499Z" fill="white"/>
</g>
</g>
<g style="mix-blend-mode:screen" opacity="0.4">
<g style="mix-blend-mode:screen" opacity="0.4">
<path d="M47.6 25.75C45.81 23.76 44.09 21.71 42.41 19.66C40.71 17.59 39.05 15.5 37.4 13.4C35.75 11.3 34.13 9.17 32.54 7.03C31.02 5.02 29.56 2.98 28.07 0.95L23.3 0.86L18.03 0.679999C14.52 0.519999 11.01 0.34 7.5 0H28.57L47.6 25.75Z" fill="white"/>
</g>
</g>
<g style="mix-blend-mode:screen" opacity="0.3">
<g style="mix-blend-mode:screen" opacity="0.3">
<path d="M50.3902 34.56L5.9502 3H27.0602L45.3202 27.71L45.3402 27.73L50.3902 34.56Z" fill="white"/>
</g>
</g>
<path d="M88.3446 34.56L84.9746 39.12C84.9746 39.1226 84.9736 39.1252 84.9717 39.127C84.9698 39.1289 84.9673 39.13 84.9646 39.13L74.0546 53.891L59.7646 34.561L34.2246 0.000976562H62.7946L81.8246 25.751C81.8346 25.761 81.8446 25.761 81.8446 25.771L88.3446 34.56Z" fill="url(#paint2_linear)"/>
<path d="M74.0546 53.891L73.6146 54.491L72.7146 55.701C72.7046 55.711 72.7046 55.721 72.6946 55.731L67.2146 63.151L62.7946 69.131H34.2246L36.6046 65.911C36.6056 65.9068 36.6074 65.9029 36.61 65.8995C36.6126 65.896 36.6159 65.8931 36.6196 65.891L54.7396 41.351H54.7496V41.341L54.7596 41.331L55.3696 40.501L59.1396 35.391L59.7596 34.561L74.0546 53.891Z" fill="url(#paint3_linear)"/>
<g style="mix-blend-mode:multiply" opacity="0.15">
<g style="mix-blend-mode:multiply" opacity="0.15">
<path d="M74.055 53.891L73.615 54.491L72.715 55.701C72.705 55.711 72.705 55.721 72.695 55.731L67.215 63.151L66.865 62.481L55.375 40.501L59.145 35.391L59.765 34.561L74.055 53.891Z" fill="black"/>
</g>
</g>
<g style="mix-blend-mode:multiply" opacity="0.25">
<g style="mix-blend-mode:multiply" opacity="0.25">
<path d="M84.9646 39.13L74.0546 53.891L73.6146 54.491L73.4746 54.311C71.7746 52.101 70.0546 49.911 68.3746 47.671C66.6846 45.451 64.9746 43.241 63.3146 40.991L59.1446 35.391L59.7646 34.561L34.2246 0.000976562C36.0246 2.14098 37.7646 4.33098 39.5146 6.50098C41.2846 8.67098 42.9946 10.881 44.7246 13.071C48.1546 17.481 51.5513 21.9143 54.9146 26.371L59.9146 33.091L64.8746 39.841C66.5346 42.091 68.1446 44.371 69.7846 46.631C71.2346 48.641 72.6546 50.671 74.0846 52.691L76.3146 49.851C77.2546 48.651 78.2046 47.441 79.1746 46.251C81.1046 43.87 82.9846 41.48 84.9646 39.13Z" fill="black"/>
</g>
</g>
<g style="mix-blend-mode:multiply" opacity="0.25">
<g style="mix-blend-mode:multiply" opacity="0.25">
<path d="M72.6946 55.73L67.2146 63.15L62.7946 69.13H34.2246C36.6046 68.86 38.9846 68.69 41.3646 68.55C42.5546 68.48 43.7446 68.42 44.9346 68.38C46.1246 68.34 47.3146 68.27 48.5046 68.25C50.8946 68.18 53.2746 68.15 55.6546 68.14C56.8446 68.12 58.0346 68.14 59.2246 68.15C60.2646 68.16 61.3046 68.16 62.3446 68.18L64.6046 65.28C65.3646 64.35 66.1046 63.41 66.8646 62.48C66.9846 62.33 67.1146 62.18 67.2346 62.03C68.9946 59.891 70.7946 57.78 72.6946 55.73Z" fill="black"/>
</g>
</g>
<g style="mix-blend-mode:screen" opacity="0.4">
<g style="mix-blend-mode:screen" opacity="0.4">
<path d="M36.6196 65.8911L36.5996 65.9111C36.6011 65.9064 36.6037 65.9022 36.6072 65.8987C36.6107 65.8952 36.6149 65.8926 36.6196 65.8911Z" fill="white"/>
</g>
</g>
<g style="mix-blend-mode:screen" opacity="0.4">
<g style="mix-blend-mode:screen" opacity="0.4">
<path d="M54.755 41.3499C54.655 41.5499 53.805 43.2199 52.385 45.5099C51.635 46.7399 50.735 48.1499 49.725 49.6299C49.215 50.3699 48.715 51.1399 48.155 51.8999C47.595 52.6599 47.045 53.4399 46.485 54.2099C45.905 54.9799 45.335 55.7399 44.765 56.4899C44.195 57.2399 43.605 57.9499 43.055 58.6499C41.935 60.0499 40.855 61.3299 39.905 62.4099C38.125 64.4299 36.785 65.7399 36.625 65.8899L54.745 41.3499C54.755 41.3399 54.755 41.3499 54.755 41.3499Z" fill="white"/>
</g>
</g>
<g style="mix-blend-mode:screen" opacity="0.4">
<g style="mix-blend-mode:screen" opacity="0.4">
<path d="M81.8246 25.75C80.0346 23.76 78.3146 21.71 76.6346 19.66C74.9346 17.59 73.2746 15.5 71.6246 13.4C69.9746 11.3 68.3546 9.17 66.7646 7.03C65.2446 5.02 63.7846 2.98 62.2946 0.95L57.5246 0.86L52.2546 0.679999C48.7446 0.519999 45.2346 0.34 41.7246 0H62.7946L81.8246 25.75Z" fill="white"/>
</g>
</g>
<g style="mix-blend-mode:screen" opacity="0.3">
<g style="mix-blend-mode:screen" opacity="0.3">
<path d="M84.6197 34.56L40.1797 3H61.2897L79.5497 27.71L79.5697 27.73L84.6197 34.56Z" fill="white"/>
</g>
</g>
<defs>
<linearGradient id="paint0_linear" x1="27.06" y1="0.269455" x2="27.06" y2="48.6636" gradientUnits="userSpaceOnUse">
<stop stop-color="#FCC400"/>
<stop offset="0.162" stop-color="#FBC000"/>
<stop offset="0.307" stop-color="#FBB500"/>
<stop offset="0.446" stop-color="#FBA300"/>
<stop offset="0.581" stop-color="#FA8900"/>
<stop offset="0.712" stop-color="#FA6800"/>
<stop offset="0.842" stop-color="#F93F00"/>
<stop offset="0.967" stop-color="#F81000"/>
<stop offset="1" stop-color="#F80300"/>
</linearGradient>
<linearGradient id="paint1_linear" x1="19.915" y1="70.0299" x2="19.915" y2="43.3072" gradientUnits="userSpaceOnUse">
<stop stop-color="#9A3D2D"/>
<stop offset="1" stop-color="#1E4450"/>
</linearGradient>
<linearGradient id="paint2_linear" x1="61.2846" y1="0.270427" x2="61.2846" y2="48.6637" gradientUnits="userSpaceOnUse">
<stop stop-color="#FCC400"/>
<stop offset="0.162" stop-color="#FBC000"/>
<stop offset="0.307" stop-color="#FBB500"/>
<stop offset="0.446" stop-color="#FBA300"/>
<stop offset="0.581" stop-color="#FA8900"/>
<stop offset="0.712" stop-color="#FA6800"/>
<stop offset="0.842" stop-color="#F93F00"/>
<stop offset="0.967" stop-color="#F81000"/>
<stop offset="1" stop-color="#F80300"/>
</linearGradient>
<linearGradient id="paint3_linear" x1="54.1396" y1="70.0299" x2="54.1396" y2="43.3072" gradientUnits="userSpaceOnUse">
<stop stop-color="#9A3D2D"/>
<stop offset="1" stop-color="#1E4450"/>
</linearGradient>
</defs>
</svg>
